<svg t="1648371893085" class="icon" viewBox="0 0 1024 1024" version="1.1" xmlns="http://www.w3.org/2000/svg" p-id="2399" width="200" height="200"><path d="M512 228.768l105.6-129.12s181.12 3.84 361.44 87.648c-46.176 69.792-137.856 104.032-137.856 104.032-6.24-61.408-49.248-76.384-185.76-76.384L512.032 1024 367.776 214.784c-135.68 0-178.688 15.104-184.96 76.448 0 0-91.552-33.92-137.76-103.68C225.312 103.712 406.432 99.84 406.432 99.84l105.6 128.928-0.16 0.096h0.16v-0.096z m0-166.336c145.696-1.28 312.576 22.528 483.328 97.28 22.816-41.312 28.672-59.52 28.672-59.52C837.344 26.112 662.528 0.64 512 0 361.472 0.64 186.656 26.016 0 100.224c0 0 8.32 22.4 28.672 59.552C199.424 84.864 366.304 61.216 512 62.272v0.128z" fill="#be522b" p-id="2400"></path></svg>